<svg width="42" height="42" viewBox="0 0 42 42" fill="none" xmlns="http://www.w3.org/2000/svg">
<circle cx="21" cy="21" r="20.85" fill="#161E31" stroke="#FF571E" stroke-width="0.3"/>
<g filter="url(#filter0_d_525_112)">
<path d="M9.36511 22.8031C9.52493 22.643 9.72534 22.5294 9.94484 22.4745C10.1643 22.4197 10.3946 22.4256 10.611 22.4917C12.1226 22.9479 13.7296 22.9857 15.261 22.6009C16.7923 22.2162 18.1906 21.4234 19.3069 20.3069C20.4231 19.1905 21.2156 17.7922 21.5998 16.2611C21.9841 14.7299 21.9457 13.1232 21.4888 11.6122C21.4221 11.3958 21.4158 11.1653 21.4703 10.9455C21.5249 10.7257 21.6384 10.525 21.7985 10.3648C21.9587 10.2047 22.1595 10.0913 22.3793 10.0367C22.5992 9.98214 22.8297 9.98852 23.0462 10.0552C25.3195 10.7537 27.3146 12.1515 28.7472 14.0495C30.0001 15.7143 30.7641 17.6953 30.9536 19.7701C31.143 21.845 30.7504 23.9315 29.8198 25.7957C28.8892 27.6598 27.4574 29.2278 25.685 30.3237C23.9127 31.4197 21.87 32.0001 19.7861 32C17.3531 32.007 14.9849 31.2161 13.0447 29.7485C11.1473 28.3147 9.75068 26.319 9.05363 24.0456C8.98814 23.8297 8.98252 23.6001 9.03738 23.3812C9.09224 23.1624 9.20551 22.9626 9.36511 22.8031ZM14.5439 27.7586C16.2233 29.0226 18.3028 29.6376 20.3997 29.4905C22.4966 29.3434 24.4698 28.4441 25.9562 26.958C27.4425 25.472 28.3421 23.4992 28.4892 21.4028C28.6363 19.3064 28.0211 17.2274 26.7569 15.5484C26.0917 14.6686 25.2672 13.9214 24.3263 13.3457C24.345 13.6114 24.3544 13.8782 24.3544 14.146C24.3511 17.1182 23.1686 19.9678 21.0665 22.0695C18.9643 24.1712 16.1141 25.3533 13.1412 25.3566C12.8734 25.3566 12.6065 25.3473 12.3407 25.3286C12.9164 26.2694 13.6637 27.0937 14.5439 27.7586Z" fill="#FF571E"/>
</g>
<defs>
<filter id="filter0_d_525_112" x="5" y="10" width="30" height="30" filterUnits="userSpaceOnUse" color-interpolation-filters="sRGB">
<feFlood flood-opacity="0" result="BackgroundImageFix"/>
<feColorMatrix in="SourceAlpha" type="matrix" values="0 0 0 0 0 0 0 0 0 0 0 0 0 0 0 0 0 0 127 0" result="hardAlpha"/>
<feOffset dy="4"/>
<feGaussianBlur stdDeviation="2"/>
<feComposite in2="hardAlpha" operator="out"/>
<feColorMatrix type="matrix" values="0 0 0 0 0 0 0 0 0 0 0 0 0 0 0 0 0 0 0.25 0"/>
<feBlend mode="normal" in2="BackgroundImageFix" result="effect1_dropShadow_525_112"/>
<feBlend mode="normal" in="SourceGraphic" in2="effect1_dropShadow_525_112" result="shape"/>
</filter>
</defs>
</svg>
