<svg width="42" height="42" viewBox="0 0 42 42" fill="none" xmlns="http://www.w3.org/2000/svg">
<g filter="url(#filter0_i_525_164)">
<circle cx="21" cy="21" r="21" fill="#161E31"/>
</g>
<circle cx="21" cy="21" r="20.85" stroke="#FF571E" stroke-width="0.3"/>
<g filter="url(#filter1_d_525_164)">
<path d="M22.3 11.0333V9.3C22.3 8.95522 22.163 8.62456 21.9192 8.38076C21.6754 8.13696 21.3448 8 21 8C20.6552 8 20.3246 8.13696 20.0808 8.38076C19.837 8.62456 19.7 8.95522 19.7 9.3V11.0333C19.7 11.3781 19.837 11.7088 20.0808 11.9526C20.3246 12.1964 20.6552 12.3333 21 12.3333C21.3448 12.3333 21.6754 12.1964 21.9192 11.9526C22.163 11.7088 22.3 11.3781 22.3 11.0333ZM13.6333 21C13.6333 22.457 14.0654 23.8813 14.8748 25.0927C15.6843 26.3041 16.8348 27.2483 18.1809 27.8059C19.527 28.3635 21.0082 28.5094 22.4372 28.2251C23.8662 27.9409 25.1788 27.2393 26.209 26.209C27.2393 25.1788 27.9409 23.8662 28.2251 22.4372C28.5094 21.0082 28.3635 19.527 27.8059 18.1809C27.2483 16.8348 26.3041 15.6843 25.0927 14.8748C23.8813 14.0654 22.457 13.6333 21 13.6333C19.0469 13.6353 17.1743 14.4121 15.7932 15.7932C14.4121 17.1743 13.6353 19.0469 13.6333 21ZM16.2333 21C16.2333 20.0572 16.5129 19.1357 17.0367 18.3518C17.5604 17.5679 18.3049 16.957 19.1759 16.5962C20.0469 16.2354 21.0053 16.141 21.9299 16.3249C22.8546 16.5088 23.7039 16.9628 24.3705 17.6295C25.0372 18.2961 25.4912 19.1454 25.6751 20.0701C25.859 20.9947 25.7646 21.9531 25.4038 22.8241C25.043 23.6951 24.4321 24.4396 23.6482 24.9633C22.8643 25.4871 21.9428 25.7667 21 25.7667C19.7362 25.7652 18.5247 25.2626 17.631 24.369C16.7374 23.4753 16.2348 22.2638 16.2333 21ZM29.2864 14.5531C29.1655 14.674 29.0219 14.7699 28.8639 14.8354C28.7059 14.9008 28.5366 14.9345 28.3656 14.9345C28.1946 14.9345 28.0252 14.9008 27.8672 14.8354C27.7092 14.7699 27.5657 14.674 27.4447 14.5531C27.3238 14.4322 27.2279 14.2886 27.1625 14.1306C27.097 13.9726 27.0633 13.8033 27.0633 13.6323C27.0633 13.4612 27.097 13.2919 27.1625 13.1339C27.2279 12.9759 27.3238 12.8323 27.4447 12.7114L28.7448 11.4114C28.989 11.1672 29.3202 11.03 29.6656 11.03C30.011 11.03 30.3422 11.1672 30.5864 11.4114C30.8306 11.6556 30.9678 11.9869 30.9678 12.3323C30.9678 12.6776 30.8306 13.0089 30.5864 13.2531L29.2864 14.5531ZM29.2864 27.4447L30.5864 28.7448C30.7073 28.8657 30.8033 29.0092 30.8687 29.1672C30.9342 29.3252 30.9678 29.4946 30.9678 29.6656C30.9678 29.8366 30.9342 30.0059 30.8687 30.1639C30.8033 30.3219 30.7073 30.4655 30.5864 30.5864C30.3422 30.8306 30.011 30.9678 29.6656 30.9678C29.4946 30.9678 29.3252 30.9342 29.1672 30.8687C29.0092 30.8033 28.8657 30.7073 28.7448 30.5864L27.4447 29.2864C27.2005 29.0422 27.0633 28.711 27.0633 28.3656C27.0633 28.0202 27.2005 27.689 27.4447 27.4447C27.689 27.2005 28.0202 27.0633 28.3656 27.0633C28.711 27.0633 29.0422 27.2005 29.2864 27.4447ZM13.6333 14.9333C13.4626 14.9335 13.2934 14.9 13.1356 14.8347C12.9778 14.7695 12.8344 14.6738 12.7136 14.5531L11.4136 13.2531C11.2927 13.1322 11.1967 12.9886 11.1313 12.8306C11.0658 12.6726 11.0322 12.5033 11.0322 12.3323C11.0322 12.1612 11.0658 11.9919 11.1313 11.8339C11.1967 11.6759 11.2927 11.5323 11.4136 11.4114C11.5345 11.2905 11.6781 11.1946 11.8361 11.1291C11.9941 11.0637 12.1634 11.03 12.3344 11.03C12.5054 11.03 12.6748 11.0637 12.8328 11.1291C12.9908 11.1946 13.1343 11.2905 13.2552 11.4114L14.5553 12.7114C14.7381 12.8932 14.8628 13.1254 14.9134 13.3782C14.964 13.6311 14.9383 13.8933 14.8395 14.1316C14.7406 14.3698 14.5732 14.5732 14.3584 14.716C14.1436 14.8587 13.8912 14.9344 13.6333 14.9333ZM12.7136 27.4469C12.9578 27.2027 13.289 27.0655 13.6344 27.0655C13.9798 27.0655 14.311 27.2027 14.5553 27.4469C14.7995 27.6911 14.9367 28.0224 14.9367 28.3678C14.9367 28.7131 14.7995 29.0444 14.5553 29.2886L13.2552 30.5886C13.011 30.8328 12.6798 30.97 12.3344 30.97C11.989 30.97 11.6578 30.8328 11.4136 30.5886C11.1694 30.3444 11.0322 30.0131 11.0322 29.6677C11.0322 29.3224 11.1694 28.9911 11.4136 28.7469L12.7136 27.4469ZM29.6667 21C29.6667 20.6552 29.8036 20.3246 30.0474 20.0808C30.2912 19.837 30.6219 19.7 30.9667 19.7H32.7C33.0448 19.7 33.3754 19.837 33.6192 20.0808C33.863 20.3246 34 20.6552 34 21C34 21.3448 33.863 21.6754 33.6192 21.9192C33.3754 22.163 33.0448 22.3 32.7 22.3H30.9667C30.6219 22.3 30.2912 22.163 30.0474 21.9192C29.8036 21.6754 29.6667 21.3448 29.6667 21ZM21 29.6667C21.3448 29.6667 21.6754 29.8036 21.9192 30.0474C22.163 30.2912 22.3 30.6219 22.3 30.9667V32.7C22.3 33.0448 22.163 33.3754 21.9192 33.6192C21.6754 33.863 21.3448 34 21 34C20.6552 34 20.3246 33.863 20.0808 33.6192C19.837 33.3754 19.7 33.0448 19.7 32.7V30.9667C19.7 30.6219 19.837 30.2912 20.0808 30.0474C20.3246 29.8036 20.6552 29.6667 21 29.6667ZM9.3 19.7H11.0333C11.3781 19.7 11.7088 19.837 11.9526 20.0808C12.1964 20.3246 12.3333 20.6552 12.3333 21C12.3333 21.3448 12.1964 21.6754 11.9526 21.9192C11.7088 22.163 11.3781 22.3 11.0333 22.3H9.3C8.95522 22.3 8.62456 22.163 8.38076 21.9192C8.13696 21.6754 8 21.3448 8 21C8 20.6552 8.13696 20.3246 8.38076 20.0808C8.62456 19.837 8.95522 19.7 9.3 19.7Z" fill="#FF571E"/>
</g>
<defs>
<filter id="filter0_i_525_164" x="0" y="0" width="42" height="46" filterUnits="userSpaceOnUse" color-interpolation-filters="sRGB">
<feFlood flood-opacity="0" result="BackgroundImageFix"/>
<feBlend mode="normal" in="SourceGraphic" in2="BackgroundImageFix" result="shape"/>
<feColorMatrix in="SourceAlpha" type="matrix" values="0 0 0 0 0 0 0 0 0 0 0 0 0 0 0 0 0 0 127 0" result="hardAlpha"/>
<feOffset dy="4"/>
<feGaussianBlur stdDeviation="2"/>
<feComposite in2="hardAlpha" operator="arithmetic" k2="-1" k3="1"/>
<feColorMatrix type="matrix" values="0 0 0 0 0 0 0 0 0 0 0 0 0 0 0 0 0 0 0.25 0"/>
<feBlend mode="normal" in2="shape" result="effect1_innerShadow_525_164"/>
</filter>
<filter id="filter1_d_525_164" x="8" y="8" width="26" height="27" filterUnits="userSpaceOnUse" color-interpolation-filters="sRGB">
<feFlood flood-opacity="0" result="BackgroundImageFix"/>
<feColorMatrix in="SourceAlpha" type="matrix" values="0 0 0 0 0 0 0 0 0 0 0 0 0 0 0 0 0 0 127 0" result="hardAlpha"/>
<feOffset dy="1"/>
<feComposite in2="hardAlpha" operator="out"/>
<feColorMatrix type="matrix" values="0 0 0 0 0 0 0 0 0 0 0 0 0 0 0 0 0 0 0.25 0"/>
<feBlend mode="normal" in2="BackgroundImageFix" result="effect1_dropShadow_525_164"/>
<feBlend mode="normal" in="SourceGraphic" in2="effect1_dropShadow_525_164" result="shape"/>
</filter>
</defs>
</svg>
