<svg width="28" height="26" viewBox="0 0 28 26" fill="none" xmlns="http://www.w3.org/2000/svg">
<path d="M14.1029 1.26842e-05C7.85973 1.26842e-05 2.72874 4.884 2.22867 11.1107H0.977172C0.783538 11.1106 0.594246 11.1694 0.433343 11.2797C0.272439 11.39 0.147186 11.5468 0.0734953 11.7301C-0.000195855 11.9134 -0.0189995 12.115 0.019473 12.3093C0.0579455 12.5036 0.151958 12.6818 0.289567 12.8213L2.4774 15.0427C2.66032 15.2283 2.90745 15.3325 3.16501 15.3325C3.42256 15.3325 3.66969 15.2283 3.85261 15.0427L6.04044 12.8213C6.17805 12.6818 6.27207 12.5036 6.31054 12.3093C6.34901 12.115 6.33021 11.9134 6.25652 11.7301C6.18283 11.5468 6.05757 11.39 5.89667 11.2797C5.73577 11.1694 5.54647 11.1106 5.35284 11.1107H4.1899C4.68477 6.00267 8.9276 2.00001 14.1029 2.00001C15.8091 1.99664 17.4877 2.44142 18.9782 3.29184C20.4686 4.14225 21.7211 5.36987 22.6159 6.85733C22.6814 6.97276 22.7687 7.0736 22.8729 7.1539C22.977 7.23421 23.0958 7.29236 23.2222 7.32492C23.3486 7.35748 23.4802 7.36381 23.609 7.34351C23.7379 7.32322 23.8614 7.27672 23.9725 7.20675C24.0835 7.13679 24.1797 7.04477 24.2555 6.93614C24.3312 6.8275 24.3849 6.70444 24.4135 6.5742C24.4421 6.44397 24.4449 6.3092 24.4217 6.17783C24.3986 6.04647 24.3501 5.92118 24.2789 5.80934C23.2095 4.03123 21.7126 2.56355 19.9313 1.5465C18.15 0.529453 16.1424 -0.00299647 14.1029 1.26842e-05ZM25.5135 10.956C25.3307 10.7712 25.0841 10.6675 24.8272 10.6675C24.5702 10.6675 24.3237 10.7712 24.1409 10.956L21.9439 13.1773C21.8059 13.3166 21.7115 13.4948 21.6728 13.6892C21.634 13.8836 21.6526 14.0855 21.7262 14.269C21.7998 14.4526 21.925 14.6096 22.086 14.72C22.247 14.8305 22.4364 14.8894 22.6302 14.8893H23.801C23.3035 19.996 19.0463 24 13.8463 24C12.1347 24.0045 10.4505 23.5604 8.95395 22.7099C7.45742 21.8594 6.19843 20.6309 5.29684 19.1413C5.22946 19.0295 5.14123 18.9324 5.03719 18.8555C4.93315 18.7786 4.81534 18.7235 4.69048 18.6932C4.56562 18.6629 4.43617 18.6581 4.3095 18.6791C4.18283 18.7 4.06143 18.7463 3.95224 18.8153C3.73171 18.9546 3.57427 19.178 3.51455 19.4361C3.45484 19.6943 3.49775 19.9662 3.63383 20.192C4.7105 21.9719 6.21421 23.4401 8.00182 24.4567C9.78943 25.4734 11.8014 26.0046 13.8463 26C20.1077 26 25.2608 21.12 25.7622 14.8893H27.0228C27.2166 14.8894 27.406 14.8305 27.567 14.72C27.728 14.6096 27.8533 14.4526 27.9269 14.269C28.0004 14.0855 28.019 13.8836 27.9802 13.6892C27.9415 13.4948 27.8471 13.3166 27.7091 13.1773L25.5135 10.956Z" fill="url(#paint0_linear_409_195)"/>
<defs>
<linearGradient id="paint0_linear_409_195" x1="0" y1="13" x2="28" y2="13" gradientUnits="userSpaceOnUse">
<stop stop-color="#FF571E"/>
<stop offset="1" stop-color="#FF086B"/>
</linearGradient>
</defs>
</svg>
