<svg width="26" height="30" viewBox="0 0 26 30" fill="none" xmlns="http://www.w3.org/2000/svg">
<path fill-rule="evenodd" clip-rule="evenodd" d="M0.0280226 5.68126C-0.347621 1.70642 3.12419 -1.21255 6.19147 0.500689L23.4479 10.1364C26.7536 11.9807 26.7536 17.5257 23.4479 19.3701L6.19147 29.0075C3.12419 30.7207 -0.346176 27.8017 0.0280226 23.8269L0.721518 16.4562H12.4503C12.8334 16.4562 13.2009 16.2768 13.4719 15.9574C13.7428 15.6381 13.895 15.2049 13.895 14.7532C13.895 14.3016 13.7428 13.8684 13.4719 13.549C13.2009 13.2296 12.8334 13.0502 12.4503 13.0502H0.722963L0.0280226 5.68126Z" fill="url(#paint0_linear_409_254)"/>
<defs>
<linearGradient id="paint0_linear_409_254" x1="12.9636" y1="0" x2="12.9636" y2="29.5082" gradientUnits="userSpaceOnUse">
<stop stop-color="#FF571E"/>
<stop offset="1" stop-color="#FF086B"/>
</linearGradient>
</defs>
</svg>
